<svg width="18" height="18" viewBox="0 0 24 24" fill="none" xmlns="http://www.w3.org/2000/svg">
  <g id="SVGRepo_bgCarrier" stroke-width="0"></g>
  <g id="SVGRepo_tracerCarrier" stroke-linecap="round" stroke-linejoin="round"></g>
  <g id="SVGRepo_iconCarrier">
    <path fill-rule="evenodd" clip-rule="evenodd"
      d="M16.7071 7.29283C17.0976 7.68336 17.0976 8.31652 16.7071 8.70705L3.70711 21.707C3.31658 22.0976 2.68342 22.0976 2.29289 21.707C1.90237 21.3165 1.90237 20.6834 2.29289 20.2928L15.2929 7.29283C15.6834 6.90231 16.3166 6.90231 16.7071 7.29283Z"
      fill="url(#paint1_linear_168_470)"></path>
    <path
      d="M11.7966 18.287L20.4649 9.55132C22.4884 7.51917 22.3791 4.89732 20.9078 3.30651C20.187 2.52715 19.1611 2.02873 17.996 2.00121C16.8274 1.9736 15.5961 2.41952 14.4408 3.38615C14.4171 3.40595 14.3944 3.42684 14.3727 3.44875L5.69666 12.1922C5.13907 12.7541 4.82617 13.5136 4.82617 14.3053V16.3453L14.5858 6.58573C15.3668 5.80468 16.6332 5.80468 17.4142 6.58572C18.1953 7.36677 18.1953 8.6331 17.4142 9.41415L7.65451 19.1739L9.66706 19.1739C10.4667 19.1739 11.2333 18.8546 11.7966 18.287Z"
      fill="url(#paint0_linear_168_470)"></path>
  </g>
  <defs>
    <filter id="filter0_d_168_470" x="0" y="0" width="28" height="27.8571" filterUnits="userSpaceOnUse"
      color-interpolation-filters="sRGB">
      <feFlood flood-opacity="0" result="BackgroundImageFix" />
      <feColorMatrix in="SourceAlpha" type="matrix" values="0 0 0 0 0 0 0 0 0 0 0 0 0 0 0 0 0 0 127 0"
        result="hardAlpha" />
      <feOffset dy="-6" />
      <feGaussianBlur stdDeviation="2" />
      <feComposite in2="hardAlpha" operator="out" />
      <feColorMatrix type="matrix" values="0 0 0 0 0 0 0 0 0 0 0 0 0 0 0 0 0 0 0.25 0" />
      <feBlend mode="normal" in2="BackgroundImageFix" result="effect1_dropShadow_168_470" />
      <feBlend mode="normal" in="SourceGraphic" in2="effect1_dropShadow_168_470" result="shape" />
    </filter>
    <filter id="filter1_i_168_470" x="5.42871" y="16.0714" width="17.1431" height="15.7857" filterUnits="userSpaceOnUse"
      color-interpolation-filters="sRGB">
      <feFlood flood-opacity="0" result="BackgroundImageFix" />
      <feBlend mode="normal" in="SourceGraphic" in2="BackgroundImageFix" result="shape" />
      <feColorMatrix in="SourceAlpha" type="matrix" values="0 0 0 0 0 0 0 0 0 0 0 0 0 0 0 0 0 0 127 0"
        result="hardAlpha" />
      <feOffset dy="4" />
      <feGaussianBlur stdDeviation="2" />
      <feComposite in2="hardAlpha" operator="arithmetic" k2="-1" k3="1" />
      <feColorMatrix type="matrix" values="0 0 0 0 0 0 0 0 0 0 0 0 0 0 0 0 0 0 0.25 0" />
      <feBlend mode="normal" in2="shape" result="effect1_innerShadow_168_470" />
    </filter>
    <linearGradient id="paint0_linear_168_470" x1="14.0001" y1="16.0714" x2="14.0001" y2="27.8571"
      gradientUnits="userSpaceOnUse">
      <stop stop-color="#D5D5D5" />
      <stop offset="1" stop-color="#F0F0F0" />
    </linearGradient>
    <linearGradient id="paint1_linear_168_470" x1="14" y1="10" x2="14" y2="21.6071" gradientUnits="userSpaceOnUse">
      <stop stop-color="#454545" />
      <stop offset="1" stop-color="#4B4B4B" />
    </linearGradient>
  </defs>
</svg>