<svg width="15" height="20" viewBox="0 0 15 20" fill="none" xmlns="http://www.w3.org/2000/svg">
<g filter="url(#filter0_i_169_852)">
<path d="M9.04543 8.24098C12.3255 8.9076 15.2901 10.0818 14.8428 12.9407C14.5992 14.4971 14.4581 17.0297 12.6996 19.1216C12.5835 19.2543 12.4419 19.3597 12.2839 19.4306C12.126 19.5016 11.9555 19.5365 11.7837 19.533H3.69534C3.37053 19.533 3.05637 19.4075 2.81276 19.1829C2.51989 18.9138 2.08992 18.5163 1.62799 18.0952C0.166333 16.7619 -0.0812704 14.843 0.0199007 13.1974C0.102435 11.8683 1.28853 10.9381 2.56116 10.9381L0.465853 2.70446C0.403702 2.46691 0.388048 2.21864 0.41983 1.97459C0.451612 1.73054 0.530175 1.49574 0.650794 1.28431C0.771414 1.07288 0.931599 0.889181 1.12172 0.744266C1.31184 0.599352 1.52797 0.49621 1.75712 0.441043C2.22971 0.327023 2.72607 0.407793 3.14338 0.666627C3.5607 0.92546 3.867 1.34253 3.99886 1.83145L5.50577 7.56321L6.19001 1.5344C6.2374 1.08513 6.45134 0.673342 6.78574 0.387729C7.12015 0.102117 7.54826 -0.0344595 7.97786 0.00741905C8.40746 0.0492977 8.80417 0.26628 9.08254 0.611627C9.3609 0.956974 9.49864 1.40305 9.46609 1.85376L9.04543 8.24098Z" fill="#E2E2E2"/>
</g>
<g filter="url(#filter1_i_169_852)">
<path fill-rule="evenodd" clip-rule="evenodd" d="M2.51304 10.9381H2.56097L2.11768 9.19488H7.14961C7.7118 9.19409 8.2547 9.40964 8.67518 9.80058C9.09566 10.1915 9.36444 10.7306 9.43047 11.3155C9.4965 11.9004 9.35518 12.4904 9.03336 12.9733C8.71153 13.4562 8.23161 13.7985 7.68475 13.9351L7.53566 13.9714C8.04684 14.5152 8.4422 15.2711 8.47681 16.2362C8.48227 16.3513 8.46586 16.4664 8.42856 16.5749C8.39124 16.6833 8.33377 16.783 8.25946 16.868C8.18514 16.953 8.09547 17.0217 7.99562 17.0702C7.89578 17.1187 7.78775 17.1459 7.67779 17.1503C7.56783 17.1548 7.45812 17.1363 7.35502 17.096C7.25192 17.0557 7.15747 16.9944 7.07715 16.9156C6.99683 16.8368 6.93222 16.7421 6.88708 16.637C6.84193 16.5318 6.81714 16.4183 6.81415 16.3031C6.79285 15.7104 6.49732 15.2683 6.09131 14.9629C5.64535 14.6282 5.21005 14.5627 5.09291 14.5836C4.87957 14.6216 4.66046 14.5711 4.48209 14.4427C4.30372 14.3144 4.18012 14.1182 4.13751 13.8959C4.0949 13.6737 4.13664 13.4427 4.25387 13.2522C4.37111 13.0616 4.5546 12.9264 4.76543 12.8752L7.29737 12.2393C7.44733 12.2017 7.5789 12.1077 7.66714 11.9752C7.75538 11.8427 7.79414 11.681 7.77609 11.5205C7.75804 11.3601 7.68441 11.2122 7.56919 11.1048C7.45396 10.9975 7.30514 10.9382 7.15094 10.9381H2.51304Z" fill="#727272"/>
</g>
<defs>
<filter id="filter0_i_169_852" x="0" y="0" width="14.8877" height="19.5332" filterUnits="userSpaceOnUse" color-interpolation-filters="sRGB">
<feFlood flood-opacity="0" result="BackgroundImageFix"/>
<feBlend mode="normal" in="SourceGraphic" in2="BackgroundImageFix" result="shape"/>
<feColorMatrix in="SourceAlpha" type="matrix" values="0 0 0 0 0 0 0 0 0 0 0 0 0 0 0 0 0 0 127 0" result="hardAlpha"/>
<feOffset/>
<feGaussianBlur stdDeviation="0.5"/>
<feComposite in2="hardAlpha" operator="arithmetic" k2="-1" k3="1"/>
<feColorMatrix type="matrix" values="0 0 0 0 0 0 0 0 0 0 0 0 0 0 0 0 0 0 0.25 0"/>
<feBlend mode="normal" in2="shape" result="effect1_innerShadow_169_852"/>
</filter>
<filter id="filter1_i_169_852" x="2.11768" y="9.19488" width="7.32861" height="11.9561" filterUnits="userSpaceOnUse" color-interpolation-filters="sRGB">
<feFlood flood-opacity="0" result="BackgroundImageFix"/>
<feBlend mode="normal" in="SourceGraphic" in2="BackgroundImageFix" result="shape"/>
<feColorMatrix in="SourceAlpha" type="matrix" values="0 0 0 0 0 0 0 0 0 0 0 0 0 0 0 0 0 0 127 0" result="hardAlpha"/>
<feOffset dy="4"/>
<feGaussianBlur stdDeviation="2"/>
<feComposite in2="hardAlpha" operator="arithmetic" k2="-1" k3="1"/>
<feColorMatrix type="matrix" values="0 0 0 0 0 0 0 0 0 0 0 0 0 0 0 0 0 0 0.25 0"/>
<feBlend mode="normal" in2="shape" result="effect1_innerShadow_169_852"/>
</filter>
</defs>
</svg>
