<svg version="1.2" xmlns="http://www.w3.org/2000/svg" viewBox="0 0 128 128" width="23" height="23">
	<title>ExitRoblox</title>
	<style>
		.s0 { fill: #e1e1e1 } 
		.s1 { fill: #7b7b7b } 
	</style>
	<path fill-rule="evenodd" class="s0" d="m128 50.6c-0.3 8.1-2.1 17.5-5 28.6-2.8 11.1-5.8 20.2-9.5 27.4-3.7 7.3-8.3 13-14.5 16.7-6.2 3.6-13.4 4.9-21.6 4.7-8.1-0.3-17.5-2.1-28.6-5-11.1-2.8-20.2-5.8-27.4-9.5-7.3-3.7-13-8.3-16.7-14.5-3.7-6.2-4.9-13.4-4.7-21.6 0.3-8.1 2.1-17.5 5-28.6 2.8-11.1 5.8-20.2 9.5-27.4 3.7-7.3 8.3-13 14.5-16.7 6.2-3.7 13.4-4.9 21.6-4.7 8.1 0.3 17.5 2.1 28.6 5 11.1 2.8 20.2 5.8 27.4 9.5 7.3 3.7 13 8.3 16.7 14.5 3.6 6.2 4.9 13.4 4.7 21.6zm-52.1 6.4c-0.8-1.3-1.9-2.2-3.4-2.9-1.4-0.7-3.3-1.3-5.5-1.9-2.2-0.6-4.1-0.9-5.7-1-1.6-0.1-3.1 0.2-4.3 0.9-1.3 0.8-2.2 1.9-2.9 3.4-0.7 1.4-1.3 3.2-1.9 5.5-0.6 2.2-0.9 4.1-1 5.7-0.1 1.6 0.2 3.1 0.9 4.3 0.8 1.2 1.9 2.2 3.4 2.9 1.4 0.7 3.2 1.3 5.5 1.9 2.2 0.6 4.1 0.9 5.7 1 1.6 0 3.1-0.2 4.3-0.9 1.2-0.8 2.2-1.9 2.9-3.4 0.7-1.4 1.3-3.3 1.9-5.5 0.6-2.2 0.9-4.1 1-5.7 0-1.6-0.2-3.1-0.9-4.3z"/>
	<path fill-rule="evenodd" class="s1" d="m97.5 128c-14.3 0-21.5 0-26-4.5-4.5-4.4-4.5-11.6-4.5-26 0-14.3 0-21.5 4.5-26 4.5-4.5 11.7-4.5 26-4.5 14.4 0 21.6 0 26 4.5 4.5 4.5 4.5 11.7 4.5 26 0 14.4 0 21.6-4.5 26-4.4 4.5-11.6 4.5-26 4.5zm-9.2-36.5l6 6-6 6c-0.9 0.9-0.9 2.4 0 3.3 0.9 0.8 2.3 0.8 3.2 0l6-6 6 6c0.9 0.8 2.4 0.8 3.3 0 0.9-0.9 0.9-2.4 0-3.3l-6-6 6-6c0.9-0.9 0.9-2.3 0-3.2-0.9-0.9-2.4-0.9-3.3 0l-6 6-6-6c-0.9-0.9-2.3-0.9-3.2 0-0.9 0.9-0.9 2.3 0 3.2z"/>
</svg>