<svg width="20" height="20" viewBox="0 0 16 16" fill="none" xmlns="http://www.w3.org/2000/svg">
<g clip-path="url(#clip0_169_785)">
<path fill-rule="evenodd" clip-rule="evenodd" d="M5.76101 0.912C6.46827 0.469541 7.27514 0.211388 8.10788 0.161133C8.94062 0.110879 9.77268 0.270125 10.528 0.624319C11.2833 0.978513 11.9379 1.51636 12.4318 2.18871C12.9257 2.86105 13.2432 3.64646 13.3553 4.47314C14.0932 4.69457 14.7433 5.14132 15.2146 5.75079C15.6858 6.36025 15.9546 7.10188 15.9832 7.87176C16.0118 8.64163 15.7988 9.40116 15.3741 10.0439C14.9493 10.6867 14.3342 11.1804 13.6147 11.456C13.5176 10.4949 12.8684 9.58857 11.6673 9.37943C11.3333 9.32173 11.0252 9.16252 10.7849 8.92346C10.5446 8.68441 10.3839 8.37712 10.3244 8.04343L10.313 7.99314C9.74844 5.51314 6.2113 5.52914 5.66844 8.01257L5.64216 8.13257C5.57147 8.44686 5.40922 8.73315 5.1759 8.95527C4.94259 9.1774 4.64868 9.3254 4.3313 9.38057C3.19987 9.57829 2.55759 10.3943 2.40787 11.2926C1.58029 10.8967 0.904311 10.2419 0.482388 9.42728C0.0604654 8.61268 -0.0844006 7.68274 0.0697464 6.7784C0.223893 5.87406 0.66865 5.04463 1.33661 4.4158C2.00457 3.78698 2.85931 3.39305 3.7713 3.29371C4.16434 2.30874 4.862 1.47452 5.76101 0.912Z" fill="url(#paint0_linear_169_785)"/>
<g filter="url(#filter0_i_169_785)">
<path fill-rule="evenodd" clip-rule="evenodd" d="M8.91976 8.31086C8.69461 7.32 7.2809 7.32571 7.06376 8.31886L7.05461 8.36L7.03633 8.44114C6.90458 9.03202 6.60043 9.57051 6.1624 9.98839C5.72438 10.4063 5.17218 10.6848 4.57576 10.7886C3.54376 10.968 3.54376 12.4503 4.57576 12.6286C5.17446 12.7326 5.72859 13.0127 6.16744 13.433C6.6063 13.8534 6.90999 14.3949 7.03976 14.9886L7.06261 15.0994C7.2809 16.0926 8.69461 16.0983 8.91976 15.1074L8.94947 14.9794C9.08445 14.388 9.39122 13.8496 9.83125 13.4319C10.2713 13.0143 10.8249 12.736 11.4226 12.632C12.4569 12.4514 12.4569 10.9669 11.4226 10.7863C10.8111 10.6802 10.246 10.3918 9.80137 9.95876C9.35674 9.52577 9.05342 8.96847 8.93119 8.36L8.91976 8.31086Z" fill="#E2E2E2"/>
</g>
</g>
<defs>
<filter id="filter0_i_169_785" x="3.80176" y="7.57085" width="8.39648" height="12.2766" filterUnits="userSpaceOnUse" color-interpolation-filters="sRGB">
<feFlood flood-opacity="0" result="BackgroundImageFix"/>
<feBlend mode="normal" in="SourceGraphic" in2="BackgroundImageFix" result="shape"/>
<feColorMatrix in="SourceAlpha" type="matrix" values="0 0 0 0 0 0 0 0 0 0 0 0 0 0 0 0 0 0 127 0" result="hardAlpha"/>
<feOffset dy="4"/>
<feGaussianBlur stdDeviation="2"/>
<feComposite in2="hardAlpha" operator="arithmetic" k2="-1" k3="1"/>
<feColorMatrix type="matrix" values="0 0 0 0 0 0 0 0 0 0 0 0 0 0 0 0 0 0 0.25 0"/>
<feBlend mode="normal" in2="shape" result="effect1_innerShadow_169_785"/>
</filter>
<linearGradient id="paint0_linear_169_785" x1="7.99775" y1="0.152067" x2="7.99775" y2="11.456" gradientUnits="userSpaceOnUse">
<stop stop-color="#848484" stop-opacity="0.6"/>
<stop offset="1" stop-color="#848484"/>
</linearGradient>
<clipPath id="clip0_169_785">
<rect width="16" height="16" fill="white"/>
</clipPath>
</defs>
</svg>
