<svg width="20" height="20" viewBox="0 0 20 20" fill="none" xmlns="http://www.w3.org/2000/svg">
<g clip-path="url(#clip0_168_446)">
<path fill-rule="evenodd" clip-rule="evenodd" d="M10 0C4.47716 0 0 4.47716 0 10C0 15.5229 4.47716 20 10 20C15.5229 20 20 15.5229 20 10C20 4.47716 15.5229 0 10 0Z" fill="url(#paint0_linear_168_446)"/>
<g filter="url(#filter0_d_168_446)">
<path fill-rule="evenodd" clip-rule="evenodd" d="M7.91679 4.87567C7.41009 4.87567 6.99933 4.46491 6.99933 3.95821C6.99933 3.45151 7.41009 3.04089 7.91679 3.04089C8.42349 3.04089 8.83424 3.45151 8.83424 3.95821C8.83424 4.46491 8.42349 4.87567 7.91679 4.87567ZM12.2918 6.25004C11.4864 6.25004 10.8334 6.90296 10.8334 7.70837C10.8334 8.51379 11.4864 9.1667 12.2918 9.1667C13.0972 9.1667 13.7501 8.51379 13.7501 7.70837C13.7501 6.90296 13.0972 6.25004 12.2918 6.25004ZM9.16677 12.2916C9.16677 13.0971 8.51384 13.75 7.70843 13.75C6.90302 13.75 6.2501 13.0971 6.2501 12.2916C6.2501 11.4862 6.90302 10.8333 7.70843 10.8333C8.51384 10.8333 9.16677 11.4862 9.16677 12.2916ZM10.8334 12.2916C10.8334 13.0971 11.4864 13.75 12.2918 13.75C13.0972 13.75 13.7501 13.0971 13.7501 12.2916C13.7501 11.4862 13.0972 10.8333 12.2918 10.8333C11.4864 10.8333 10.8334 11.4862 10.8334 12.2916ZM9.16677 7.70837C9.16677 6.90296 8.51384 6.25004 7.70843 6.25004C6.90302 6.25004 6.2501 6.90296 6.2501 7.70837C6.2501 8.51379 6.90302 9.1667 7.70843 9.1667C8.51384 9.1667 9.16677 8.51379 9.16677 7.70837ZM6.99933 16.0416C6.99933 16.5483 7.41009 16.959 7.91679 16.959C8.42349 16.959 8.83424 16.5483 8.83424 16.0416C8.83424 15.5349 8.42349 15.1243 7.91679 15.1243C7.41009 15.1243 6.99933 15.5349 6.99933 16.0416ZM3.95847 8.83406C3.45179 8.83406 3.04102 8.4233 3.04102 7.9166C3.04102 7.4099 3.45179 6.99927 3.95847 6.99927C4.46517 6.99927 4.87594 7.4099 4.87594 7.9166C4.87594 8.4233 4.46517 8.83406 3.95847 8.83406ZM15.1244 7.9166C15.1244 8.4233 15.5351 8.83406 16.0418 8.83406C16.5485 8.83406 16.9594 8.4233 16.9594 7.9166C16.9594 7.4099 16.5485 6.99927 16.0418 6.99927C15.5351 6.99927 15.1244 7.4099 15.1244 7.9166ZM3.95847 13.0008C3.45179 13.0008 3.04102 12.59 3.04102 12.0833C3.04102 11.5766 3.45179 11.166 3.95847 11.166C4.46517 11.166 4.87594 11.5766 4.87594 12.0833C4.87594 12.59 4.46517 13.0008 3.95847 13.0008ZM11.166 3.95821C11.166 4.46491 11.5767 4.87567 12.0834 4.87567C12.5901 4.87567 13.0009 4.46491 13.0009 3.95821C13.0009 3.45151 12.5901 3.04089 12.0834 3.04089C11.5767 3.04089 11.166 3.45151 11.166 3.95821ZM16.0418 13.0008C15.5351 13.0008 15.1244 12.59 15.1244 12.0833C15.1244 11.5766 15.5351 11.166 16.0418 11.166C16.5485 11.166 16.9594 11.5766 16.9594 12.0833C16.9594 12.59 16.5485 13.0008 16.0418 13.0008ZM11.166 16.0416C11.166 16.5483 11.5767 16.959 12.0834 16.959C12.5901 16.959 13.0009 16.5483 13.0009 16.0416C13.0009 15.5349 12.5901 15.1243 12.0834 15.1243C11.5767 15.1243 11.166 15.5349 11.166 16.0416Z" fill="url(#paint1_linear_168_446)" fill-opacity="0.85" shape-rendering="crispEdges"/>
</g>
</g>
<defs>
<filter id="filter0_d_168_446" x="1.04102" y="3.04089" width="17.9185" height="19.9181" filterUnits="userSpaceOnUse" color-interpolation-filters="sRGB">
<feFlood flood-opacity="0" result="BackgroundImageFix"/>
<feColorMatrix in="SourceAlpha" type="matrix" values="0 0 0 0 0 0 0 0 0 0 0 0 0 0 0 0 0 0 127 0" result="hardAlpha"/>
<feOffset dy="4"/>
<feGaussianBlur stdDeviation="1"/>
<feComposite in2="hardAlpha" operator="out"/>
<feColorMatrix type="matrix" values="0 0 0 0 0 0 0 0 0 0 0 0 0 0 0 0 0 0 0.25 0"/>
<feBlend mode="normal" in2="BackgroundImageFix" result="effect1_dropShadow_168_446"/>
<feBlend mode="normal" in="SourceGraphic" in2="effect1_dropShadow_168_446" result="shape"/>
</filter>
<linearGradient id="paint0_linear_168_446" x1="10" y1="0" x2="10" y2="20" gradientUnits="userSpaceOnUse">
<stop stop-color="#D5D5D5" stop-opacity="0.8"/>
<stop offset="1" stop-color="#F0F0F0" stop-opacity="0.8"/>
</linearGradient>
<linearGradient id="paint1_linear_168_446" x1="10.0002" y1="3.04089" x2="10.0002" y2="16.959" gradientUnits="userSpaceOnUse">
<stop stop-color="#454545"/>
<stop offset="1" stop-color="#4B4B4B"/>
</linearGradient>
<clipPath id="clip0_168_446">
<rect width="20" height="20" fill="white"/>
</clipPath>
</defs>
</svg>
