<svg width="21" height="20" viewBox="0 0 18 17" fill="none" xmlns="http://www.w3.org/2000/svg">
    <g filter="url(#filter0_i_5_42)">
        <path fill-rule="evenodd" clip-rule="evenodd"
            d="M5.1239 0.154212C6.6687 0.0467898 8.21697 -0.00462925 9.76549 0.000326805C10.3453 0.000326805 10.888 0.00540675 11.4077 0.0169296C12.0542 0.0310543 12.688 0.24528 13.2076 0.645605C14.7419 1.83097 15.681 2.8316 16.8408 4.41097C17.2167 4.9228 17.4206 5.53599 17.436 6.16331C17.4981 8.64914 17.4527 11.1365 17.3001 13.6183C17.2019 15.1754 15.9649 16.4184 14.4083 16.5242C13.3025 16.6011 12.2248 16.6486 11.0112 16.6678C11.2528 16.3967 11.4773 16.111 11.6835 15.8121C11.8478 15.5741 11.9906 15.3221 12.1107 15.0591C12.23 14.7909 12.4109 14.3111 12.4109 13.712C12.4109 13.1142 12.23 12.6343 12.1107 12.3662C11.9908 12.1026 11.8478 11.8503 11.6835 11.6119C11.423 11.2382 11.1362 10.8836 10.8252 10.5509C10.4898 10.1877 10.1388 9.83934 9.77317 9.50666L9.75137 9.48609L9.74368 9.47965L9.7386 9.47581C9.2684 9.05479 8.65955 8.82186 8.02839 8.82149H3.69606C3.10517 8.82149 2.53238 9.02543 2.07444 9.39887C2.04941 7.28474 2.1017 5.17036 2.23092 3.05995C2.32918 1.50251 3.56695 0.259281 5.1239 0.154212Z"
            fill="url(#paint0_linear_5_42)" />
    </g>
    <g filter="url(#filter1_b_5_42)">
        <path fill-rule="evenodd" clip-rule="evenodd"
            d="M4.41311 10.7472C4.05925 10.3508 3.4509 10.3162 3.05453 10.6702L3.05193 10.6741L3.04685 10.6779L3.03013 10.6946C2.93447 10.781 2.84043 10.8691 2.74788 10.9589C2.56835 11.1308 2.32451 11.3694 2.08079 11.6363C1.82246 11.9115 1.5842 12.2047 1.36749 12.5137C1.25697 12.6741 1.16033 12.8437 1.0788 13.0205C0.977081 13.2376 0.922068 13.4736 0.917236 13.7132C0.917236 13.9916 1.0031 14.2355 1.0788 14.4061C1.15971 14.5856 1.26354 14.7588 1.36749 14.9115C1.57664 15.2194 1.83832 15.5273 2.07956 15.7891C2.38225 16.1164 2.69894 16.4306 3.02889 16.7307L3.04685 16.7473L3.05193 16.7512L3.05453 16.7538C3.60924 17.2447 4.48721 16.951 4.63502 16.2252C4.70292 15.8919 4.5898 15.5476 4.33741 15.3195L4.33493 15.3169L4.32205 15.3054L4.27075 15.2579C4.00263 15.0105 3.74417 14.7529 3.49587 14.4856C3.30221 14.2802 3.12293 14.0615 2.95963 13.8313C2.93348 13.7924 2.9087 13.7525 2.88516 13.712C2.90449 13.6799 2.92878 13.6401 2.95963 13.5953C3.09171 13.4003 3.28289 13.1719 3.49587 12.941C3.74367 12.6728 4.00213 12.4147 4.27075 12.1673L4.32205 12.1199L4.33493 12.1083L4.33741 12.1057C4.73389 11.7519 4.76834 11.1436 4.41448 10.7472H4.41311ZM7.31253 10.7472C7.66627 10.3515 8.27363 10.3171 8.66987 10.6702C9.28814 11.2244 9.89116 11.8261 10.3581 12.5137C10.462 12.6678 10.5659 12.8396 10.6467 13.0205C10.7224 13.1899 10.8084 13.4336 10.8084 13.7132C10.8084 13.9916 10.7224 14.2354 10.6467 14.4061C10.4145 14.9256 10.0271 15.3734 9.64609 15.789C9.33819 16.1226 9.01493 16.4433 8.67755 16.7473L8.67235 16.7512V16.7538C8.12037 17.248 7.24017 16.9593 7.08814 16.2341C7.01764 15.8975 7.13201 15.5488 7.38823 15.3195L7.39071 15.3169C7.682 15.0526 7.96289 14.7756 8.22977 14.4855C8.45044 14.2456 8.67495 13.9955 8.84048 13.712C8.66479 13.4337 8.45998 13.1748 8.22977 12.9397C7.96227 12.6505 7.68237 12.3731 7.39071 12.1083C6.99732 11.7522 6.96189 11.1466 7.31117 10.7472H7.31253Z"
            fill="url(#paint1_linear_5_42)" />
    </g>
    <defs>
        <filter id="filter0_i_5_42" x="2.06836" y="0" width="15.3945" height="20.6678" filterUnits="userSpaceOnUse"
            color-interpolation-filters="sRGB">
            <feFlood flood-opacity="0" result="BackgroundImageFix" />
            <feBlend mode="normal" in="SourceGraphic" in2="BackgroundImageFix" result="shape" />
            <feColorMatrix in="SourceAlpha" type="matrix" values="0 0 0 0 0 0 0 0 0 0 0 0 0 0 0 0 0 0 127 0"
                result="hardAlpha" />
            <feOffset dy="4" />
            <feGaussianBlur stdDeviation="2" />
            <feComposite in2="hardAlpha" operator="arithmetic" k2="-1" k3="1" />
            <feColorMatrix type="matrix" values="0 0 0 0 0 0 0 0 0 0 0 0 0 0 0 0 0 0 0.25 0" />
            <feBlend mode="normal" in2="shape" result="effect1_innerShadow_5_42" />
        </filter>
        <filter id="filter1_b_5_42" x="-14.0828" y="-4.57424" width="39.8911" height="36.5742"
            filterUnits="userSpaceOnUse" color-interpolation-filters="sRGB">
            <feFlood flood-opacity="0" result="BackgroundImageFix" />
            <feGaussianBlur in="BackgroundImageFix" stdDeviation="7.5" />
            <feComposite in2="SourceAlpha" operator="in" result="effect1_backgroundBlur_5_42" />
            <feBlend mode="normal" in="SourceGraphic" in2="effect1_backgroundBlur_5_42" result="shape" />
        </filter>
        <linearGradient id="paint0_linear_5_42" x1="9.76562" y1="0" x2="9.76562" y2="16.6678"
            gradientUnits="userSpaceOnUse">
            <stop stop-color="#D5D5D5" />
            <stop offset="1" stop-color="#F0F0F0" />
        </linearGradient>
        <linearGradient id="paint1_linear_5_42" x1="5.86282" y1="10.4258" x2="5.86282" y2="17"
            gradientUnits="userSpaceOnUse">
            <stop stop-color="#848484" stop-opacity="0.6" />
            <stop offset="1" stop-color="#848484" />
        </linearGradient>
    </defs>
</svg>