<svg width="20" height="20" viewBox="0 0 17 17" fill="none" xmlns="http://www.w3.org/2000/svg">
<g filter="url(#filter0_i_5_31)">
<path fill-rule="evenodd" clip-rule="evenodd" d="M3.79728 0C3.17707 0 2.57963 0.0833272 2.03057 0.173324C1.44703 0.268973 0.982487 0.649512 0.668241 1.11245C0.351285 1.57938 0.154047 2.17279 0.107919 2.80681C0.050007 3.60281 0 4.43399 0 5.28616C0 6.13834 0.050007 6.96952 0.107919 7.76552C0.154047 8.39954 0.351285 8.99294 0.668241 9.45988C0.982487 9.92282 1.44703 10.3034 2.03057 10.399C2.57963 10.489 3.17707 10.5723 3.79728 10.5723C4.41749 10.5723 5.01494 10.489 5.56399 10.399C6.14752 10.3034 6.61208 9.92282 6.92633 9.45988C7.24327 8.99294 7.44051 8.39954 7.48665 7.76552C7.54456 6.96952 7.59457 6.13834 7.59457 5.28616C7.59457 4.43399 7.54456 3.60281 7.48665 2.80681C7.44051 2.17279 7.24327 1.57938 6.92633 1.11245C6.61208 0.649513 6.14752 0.268973 5.56399 0.173324C5.01494 0.0833272 4.41749 0 3.79728 0ZM13.1707 17C13.7921 17 14.3905 16.9168 14.9408 16.8269C15.5247 16.7315 15.99 16.3516 16.3051 15.8889C16.6229 15.4221 16.8206 14.8288 16.8668 14.1948C16.9249 13.3993 16.9751 12.5687 16.9751 11.7169C16.9751 10.8652 16.9249 10.0345 16.8668 9.23897C16.8206 8.60497 16.6229 8.01169 16.3051 7.54493C15.99 7.08207 15.5247 6.70231 14.9408 6.6069C14.3905 6.51697 13.7921 6.43372 13.1707 6.43372C12.5493 6.43372 11.9508 6.51697 11.4005 6.6069C10.8168 6.70231 10.3514 7.08207 10.0363 7.54493C9.71855 8.01169 9.52076 8.60497 9.47451 9.23897C9.41646 10.0345 9.36633 10.8652 9.36633 11.7169C9.36633 12.5687 9.41646 13.3993 9.47451 14.1948C9.52076 14.8288 9.71855 15.4221 10.0363 15.8889C10.3514 16.3516 10.8168 16.7315 11.4005 16.8269C11.9508 16.9168 12.5493 17 13.1707 17Z" fill="url(#paint0_linear_5_31)"/>
</g>
<path fill-rule="evenodd" clip-rule="evenodd" d="M14.8759 4.56832C14.3303 4.60058 13.758 4.62904 13.1706 4.62904C12.5832 4.62904 12.0109 4.60058 11.4652 4.56832C11.0266 4.54239 10.6051 4.43527 10.2626 4.25335C9.94032 4.08218 9.57865 3.7819 9.48527 3.31909C9.42545 3.02263 9.36627 2.67886 9.36627 2.31452C9.36627 1.95019 9.42545 1.60641 9.48527 1.30995C9.57865 0.847143 9.94032 0.546869 10.2626 0.375697C10.6051 0.193774 11.0266 0.0866494 11.4652 0.0607242C12.0109 0.0284738 12.5832 0 13.1706 0C13.758 0 14.3303 0.0284738 14.8759 0.0607242C15.3146 0.0866494 15.7362 0.193774 16.0787 0.375698C16.4009 0.546869 16.7626 0.847143 16.8559 1.30995C16.9158 1.60641 16.9749 1.95019 16.9749 2.31452C16.9749 2.67886 16.9158 3.02263 16.8559 3.31909C16.7626 3.7819 16.4009 4.08218 16.0787 4.25335C15.7362 4.43527 15.3146 4.54239 14.8759 4.56832ZM2.09553 12.4318C2.64002 12.3995 3.21113 12.371 3.79728 12.371C4.38344 12.371 4.95455 12.3995 5.49903 12.4318C5.93708 12.4577 6.358 12.5649 6.70003 12.747C7.02203 12.9185 7.38277 13.2188 7.47586 13.6813C7.53554 13.9777 7.59457 14.3214 7.59457 14.6855C7.59457 15.0498 7.53554 15.3934 7.47586 15.6899C7.38277 16.1522 7.02203 16.4527 6.70003 16.6241C6.358 16.8062 5.93708 16.9134 5.49903 16.9394C4.95455 16.9716 4.38344 17 3.79728 17C3.21113 17 2.64002 16.9716 2.09553 16.9394C1.65749 16.9134 1.23656 16.8062 0.894533 16.6241C0.57253 16.4527 0.2118 16.1522 0.118704 15.6899C0.0590188 15.3934 0 15.0498 0 14.6855C0 14.3214 0.0590188 13.9777 0.118704 13.6813C0.211799 13.2188 0.57253 12.9185 0.894533 12.747C1.23656 12.5649 1.65749 12.4577 2.09553 12.4318Z" fill="url(#paint1_linear_5_31)"/>
<defs>
<filter id="filter0_i_5_31" x="0" y="0" width="16.9751" height="20" filterUnits="userSpaceOnUse" color-interpolation-filters="sRGB">
<feFlood flood-opacity="0" result="BackgroundImageFix"/>
<feBlend mode="normal" in="SourceGraphic" in2="BackgroundImageFix" result="shape"/>
<feColorMatrix in="SourceAlpha" type="matrix" values="0 0 0 0 0 0 0 0 0 0 0 0 0 0 0 0 0 0 127 0" result="hardAlpha"/>
<feOffset dy="4"/>
<feGaussianBlur stdDeviation="1.5"/>
<feComposite in2="hardAlpha" operator="arithmetic" k2="-1" k3="1"/>
<feColorMatrix type="matrix" values="0 0 0 0 0 0 0 0 0 0 0 0 0 0 0 0 0 0 0.25 0"/>
<feBlend mode="normal" in2="shape" result="effect1_innerShadow_5_31"/>
</filter>
<linearGradient id="paint0_linear_5_31" x1="8.48754" y1="0" x2="8.48754" y2="17" gradientUnits="userSpaceOnUse">
<stop stop-color="#D5D5D5"/>
<stop offset="1" stop-color="#F0F0F0"/>
</linearGradient>
<linearGradient id="paint1_linear_5_31" x1="8.48747" y1="0" x2="8.48747" y2="17" gradientUnits="userSpaceOnUse">
<stop stop-color="#848484" stop-opacity="0.6"/>
<stop offset="1" stop-color="#848484"/>
</linearGradient>
</defs>
</svg>
