<svg xmlns="http://www.w3.org/2000/svg" width="39" height="4" viewBox="0 0 39 4" fill="none">
  <path fill-rule="evenodd" clip-rule="evenodd" d="M2 0C0.895447 0 0 0.895416 0 2C0 3.10458 0.895447 4 2 4C3.10455 4 4 3.10458 4 2C4 0.895416 3.10455 0 2 0ZM9 0C7.89545 0 7 0.895416 7 2C7 3.10458 7.89545 4 9 4C10.1046 4 11 3.10458 11 2C11 0.895416 10.1046 0 9 0ZM14 2C14 0.895416 14.8954 0 16 0C17.1046 0 18 0.895416 18 2C18 3.10458 17.1046 4 16 4C14.8954 4 14 3.10458 14 2ZM23 0C21.8954 0 21 0.895416 21 2C21 3.10458 21.8954 4 23 4C24.1046 4 25 3.10458 25 2C25 0.895416 24.1046 0 23 0ZM28 2C28 0.895416 28.8954 0 30 0C31.1046 0 32 0.895416 32 2C32 3.10458 31.1046 4 30 4C28.8954 4 28 3.10458 28 2ZM37 0C35.8954 0 35 0.895416 35 2C35 3.10458 35.8954 4 37 4C38.1046 4 39 3.10458 39 2C39 0.895416 38.1046 0 37 0Z" fill="url(#paint0_linear_169_897)"/>
  <defs>
    <linearGradient id="paint0_linear_169_897" x1="39" y1="2" x2="3.51831e-09" y2="2" gradientUnits="userSpaceOnUse">
      <stop stop-color="#70CE38" stop-opacity="0.4"/>
      <stop offset="0.480534" stop-color="#51B93D"/>
      <stop offset="1" stop-color="#30A342" stop-opacity="0.4"/>
    </linearGradient>
  </defs>
</svg>