<svg width="20" height="20" viewBox="0 0 16 16" fill="none" xmlns="http://www.w3.org/2000/svg">
<path fill-rule="evenodd" clip-rule="evenodd" d="M3.26785 0.0300399C3.32764 0.0110483 3.39001 0.00138326 3.45274 0.00138326H11.9557C12.0091 0.00138326 12.0603 0.00101552 12.11 0.000658774C12.6022 -0.00287322 12.9354 -0.00526417 13.5206 0.363172C13.1115 0.363172 12.5638 0.425521 12.1329 0.65363C11.7117 0.876582 11.3219 1.19766 10.9809 1.64458C10.6477 2.08126 10.4829 2.61012 10.3715 3.08627C10.1425 4.06536 10.2352 5.31834 10.4079 6.75361C10.4386 7.00824 10.4717 7.26828 10.5053 7.53198C10.6552 8.70921 10.8144 9.95911 10.8037 11.1229C10.7907 12.5536 10.524 13.9799 9.57756 15.0836C9.5243 15.1457 9.45912 15.1964 9.38587 15.2329L9.38467 15.2334L9.38338 15.2341L9.38045 15.2354L9.37327 15.239L9.35359 15.2482C9.33809 15.2552 9.31777 15.2642 9.29247 15.2748C9.24184 15.2959 9.17128 15.3234 9.07924 15.3551C8.89517 15.4185 8.62548 15.4982 8.2581 15.5764C7.52339 15.7328 6.39842 15.8828 4.78601 15.8828C3.15406 15.8828 2.04265 15.6534 1.3206 15.4076C0.959702 15.2848 0.697472 15.1582 0.517513 15.0555C0.427606 15.0042 0.35853 14.959 0.308183 14.9233C0.275633 14.9003 0.243507 14.8764 0.213186 14.8504L0.211765 14.8491C0.0853745 14.74 0.00913182 14.584 0.000767924 14.4173C-0.00759597 14.2506 0.0526483 14.0876 0.16749 13.9664C0.760073 13.3413 0.999103 12.3771 1.01772 11.1044C1.03231 10.1074 0.913484 9.02168 0.790188 7.895C0.756359 7.58588 0.7222 7.27369 0.690362 6.9594C0.546785 5.54228 0.44961 4.07203 0.740049 2.84275C0.887914 2.21694 1.14132 1.62801 1.5596 1.13287C1.98152 0.633448 2.54629 0.259203 3.26785 0.0300399Z" fill="url(#paint0_linear_5_47)"/>
<g filter="url(#filter0_i_5_47)">
<path fill-rule="evenodd" clip-rule="evenodd" d="M14.3136 7.19768H10.463C10.4442 7.04834 10.4258 6.90044 10.4082 6.75433C10.2355 5.31907 10.1428 4.06609 10.3718 3.087C10.4832 2.61085 10.648 2.08199 10.9812 1.64531C11.3222 1.19839 11.712 0.87731 12.1332 0.654346C12.564 0.426249 13.1117 0.363901 13.521 0.363901L13.5173 0.361607C13.8475 0.548782 14.1257 0.795369 14.3542 1.08631C14.7798 1.6283 15.0129 2.29729 15.1305 2.96533C15.3644 4.29423 15.1692 5.77996 14.9025 6.74889C14.8295 7.01399 14.5885 7.19768 14.3136 7.19768ZM12.4071 0.00235445C12.4166 0.00263178 12.4263 0.00313633 12.4358 0.00386692C12.402 0.00253036 12.3678 0.00171547 12.333 0.00125122C12.3579 0.0012781 12.3826 0.00164829 12.4071 0.00235445ZM3.86611 3.43883C3.4444 3.43883 3.10254 3.78069 3.10254 4.20241C3.10254 4.62412 3.4444 4.96598 3.86611 4.96598H6.68472C7.10643 4.96598 7.4483 4.62412 7.4483 4.20241C7.4483 3.78069 7.10643 3.43883 6.68472 3.43883H3.86611ZM4.2309 7.17879C3.80918 7.17879 3.46732 7.52065 3.46732 7.94236C3.46732 8.36407 3.80918 8.70594 4.2309 8.70594H7.0495C7.47121 8.70594 7.81308 8.36407 7.81308 7.94236C7.81308 7.52065 7.47121 7.17879 7.0495 7.17879H4.2309ZM3.46732 11.6824C3.46732 11.2606 3.80918 10.9187 4.2309 10.9187H7.0495C7.47121 10.9187 7.81308 11.2606 7.81308 11.6824C7.81308 12.104 7.47121 12.4459 7.0495 12.4459H4.2309C3.80918 12.4459 3.46732 12.104 3.46732 11.6824Z" fill="url(#paint1_linear_5_47)" fill-opacity="0.85"/>
</g>
<defs>
<filter id="filter0_i_5_47" x="3.10254" y="0.00125122" width="12.1323" height="16.4447" filterUnits="userSpaceOnUse" color-interpolation-filters="sRGB">
<feFlood flood-opacity="0" result="BackgroundImageFix"/>
<feBlend mode="normal" in="SourceGraphic" in2="BackgroundImageFix" result="shape"/>
<feColorMatrix in="SourceAlpha" type="matrix" values="0 0 0 0 0 0 0 0 0 0 0 0 0 0 0 0 0 0 127 0" result="hardAlpha"/>
<feOffset dy="4"/>
<feGaussianBlur stdDeviation="2"/>
<feComposite in2="hardAlpha" operator="arithmetic" k2="-1" k3="1"/>
<feColorMatrix type="matrix" values="0 0 0 0 0 0 0 0 0 0 0 0 0 0 0 0 0 0 0.25 0"/>
<feBlend mode="normal" in2="shape" result="effect1_innerShadow_5_47"/>
</filter>
<linearGradient id="paint0_linear_5_47" x1="6.7603" y1="0" x2="6.7603" y2="15.8828" gradientUnits="userSpaceOnUse">
<stop stop-color="#D5D5D5"/>
<stop offset="1" stop-color="#F0F0F0"/>
</linearGradient>
<linearGradient id="paint1_linear_5_47" x1="9.16876" y1="0.00125122" x2="9.16876" y2="12.4459" gradientUnits="userSpaceOnUse">
<stop stop-color="#848484" stop-opacity="0.6"/>
<stop offset="1" stop-color="#848484"/>
</linearGradient>
</defs>
</svg>
