<svg width="16" height="16" viewBox="0 0 12 12" fill="none" xmlns="http://www.w3.org/2000/svg">
<g filter="url(#filter0_i_5_73)">
<path fill-rule="evenodd" clip-rule="evenodd" d="M5.61188 2.24335C4.71886 2.24335 3.86242 2.59815 3.23096 3.2297C2.5995 3.86125 2.24475 4.71781 2.24475 5.61096C2.24475 6.5041 2.5995 7.36067 3.23096 7.99222C3.86242 8.62377 4.71886 8.97857 5.61188 8.97857C6.50489 8.97857 7.36134 8.62377 7.99279 7.99222C8.62425 7.36067 8.979 6.5041 8.979 5.61096C8.979 4.71781 8.62425 3.86125 7.99279 3.2297C7.36134 2.59815 6.50489 2.24335 5.61188 2.24335ZM1.15764e-07 5.61096C0.000269064 4.73586 0.205129 3.87294 0.59822 3.09113C0.991312 2.30931 1.56174 1.63026 2.26396 1.10819C2.96618 0.586128 3.78072 0.235517 4.64254 0.0843622C5.50437 -0.066793 6.38959 -0.0143046 7.22752 0.237634C8.06545 0.489573 8.83287 0.933982 9.46849 1.53537C10.1041 2.13676 10.5903 2.87847 10.8883 3.70126C11.1863 4.52405 11.2878 5.40513 11.1846 6.27413C11.0815 7.14313 10.7767 7.97598 10.2944 8.70617L11.6428 10.0562C11.753 10.159 11.8415 10.2829 11.9028 10.4206C11.9642 10.5583 11.9972 10.7069 11.9998 10.8577C12.0025 11.0084 11.9748 11.1581 11.9183 11.2979C11.8619 11.4376 11.7778 11.5646 11.6713 11.6712C11.5647 11.7778 11.4377 11.8618 11.298 11.9183C11.1582 11.9748 11.0085 12.0025 10.8578 11.9998C10.7071 11.9972 10.5585 11.9642 10.4208 11.9028C10.2831 11.8415 10.1592 11.753 10.0565 11.6427L8.70664 10.2942C7.86077 10.8534 6.87919 11.173 5.86624 11.219C4.85329 11.265 3.84681 11.0356 2.95377 10.5552C2.06073 10.0749 1.31451 9.36151 0.794421 8.49093C0.274327 7.62035 -0.000205812 6.6251 1.15764e-07 5.61096Z" fill="white" fill-opacity="0.7"/>
</g>
<defs>
<filter id="filter0_i_5_73" x="0" y="-2" width="12" height="14" filterUnits="userSpaceOnUse" color-interpolation-filters="sRGB">
<feFlood flood-opacity="0" result="BackgroundImageFix"/>
<feBlend mode="normal" in="SourceGraphic" in2="BackgroundImageFix" result="shape"/>
<feColorMatrix in="SourceAlpha" type="matrix" values="0 0 0 0 0 0 0 0 0 0 0 0 0 0 0 0 0 0 127 0" result="hardAlpha"/>
<feOffset dy="-2"/>
<feGaussianBlur stdDeviation="2"/>
<feComposite in2="hardAlpha" operator="arithmetic" k2="-1" k3="1"/>
<feColorMatrix type="matrix" values="0 0 0 0 0 0 0 0 0 0 0 0 0 0 0 0 0 0 0.25 0"/>
<feBlend mode="normal" in2="shape" result="effect1_innerShadow_5_73"/>
</filter>
</defs>
</svg>
