<svg xmlns="http://www.w3.org/2000/svg" width="18" height="18" viewBox="0 0 18 18" fill="none">
  <g clip-path="url(#clip0_169_886)">
    <path fill-rule="evenodd" clip-rule="evenodd" d="M1.92857 0C0.874286 0 0 0.871714 0 1.92857V5.59671C0 10.9144 3.22714 15.8901 8.24271 17.847C8.45743 17.9306 8.712 17.9987 8.991 18.0013C9.25388 17.9987 9.51388 17.9463 9.75729 17.847C14.7729 15.8901 18 10.9144 18 5.59671V1.92857C18 0.874286 17.1257 0 16.0714 0H1.92857Z" fill="url(#paint0_linear_169_886)"/>
    <path fill-rule="evenodd" clip-rule="evenodd" d="M13.4976 4.42286C13.6885 4.5926 13.8043 4.83119 13.8195 5.08624C13.8347 5.34129 13.748 5.59193 13.5786 5.78314L8.43571 11.5689C8.27504 11.7498 8.05218 11.8638 7.81138 11.8881C7.57058 11.9124 7.32945 11.8453 7.13586 11.7L4.56443 9.77143C4.35983 9.61798 4.22457 9.38954 4.18841 9.13637C4.15224 8.88319 4.21813 8.62602 4.37157 8.42143C4.52502 8.21683 4.75346 8.08157 5.00663 8.0454C5.2598 8.00924 5.51698 8.07512 5.72157 8.22857L7.58329 9.62486L12.136 4.50257C12.2201 4.40764 12.3221 4.33023 12.4361 4.27476C12.5502 4.2193 12.674 4.18688 12.8006 4.17936C12.9272 4.17183 13.0541 4.18935 13.1739 4.23092C13.2937 4.27248 13.4041 4.33727 13.4989 4.42157L13.4976 4.42286Z" fill="#0C782A"/>
  </g>
  <defs>
    <linearGradient id="paint0_linear_169_886" x1="9" y1="0" x2="9" y2="18.0013" gradientUnits="userSpaceOnUse">
      <stop stop-color="#71CE38"/>
      <stop offset="1" stop-color="#30A342"/>
    </linearGradient>
    <clipPath id="clip0_169_886">
      <rect width="18" height="18" fill="white"/>
    </clipPath>
  </defs>
</svg>